# xmcd
#
# Track frame offsets:
#	150
#	10883
#	21328
#	28359
#	42491
#	54243
#	65807
#	81697
#	97608
#	101341
#	123493
#	131388
#	143611
#	154867
#	163826
#	174819
#	185570
#	196435
#	207472
#	217539
#	226839
#	239859
#	258892
#	269324
#	282944
#	295079
#	298996
#	316546
#	349018
#
# Disc length: 4773 seconds
#
# Revision: 0
# Processed by: cddbd v1.5.2PL0 Copyright (c) Steve Scherf et al.
# Submitted via: EZCDAudioConverter 2.1.7.1
#
DISCID=ab12a31d
DTITLE=V/A - Only In America 2/2
DYEAR=1900
DGENRE=
TTITLE0=James "Rebel" O'Leary - Rebel Star
TTITLE1=Tangela Tricoli - Stinky Poodle
TTITLE2=Miriam - In 1967
TTITLE3=Nora Guthrie - Emily's Illness
TTITLE4=MSR Singers - I'm Just The Other Woman
TTITLE5=William Howard Arpaia - Listen, Mr. Hat
TTITLE6=Harry Burgess - Chicago Policeman
TTITLE7=Phil Phillips - The Evil Dope
TTITLE8=McDonalds Funeral Home
TTITLE9=Earl Coleman - Hippy Heaven
TTITLE10=Roger Bailey - Did She Break Your Heart
TTITLE11=Rodd Keith - The Green Bug
TTITLE12=James "Rebel" O'Leary - South Bound 81
TTITLE13=Buddy Max - Cheese Eating Flea Market Cowboy
TTITLE14=The World (We Wish) - Laughter (Part 1)
TTITLE15=Electric Lollipop - Lightning Bug
TTITLE16=Langley Schools Music Project - Little Deuce Coupe
TTITLE17=Melvin Kaiser - Heap 'Lil Injun
TTITLE18=Uge - Mad Charles
TTITLE19=Monocles - The Spider and The Fly
TTITLE20=Lou Berrington and The African Kamp - The Kwella Stroll
TTITLE21=Sacramento City College Stage Band - LSD '67
TTITLE22=Georgie Leonard - Ernie The Narc
TTITLE23=Lost Dimension - Purple Haze
TTITLE24=Lucky Charms - Wipe Out
TTITLE25=Ed "Moose" Savage - Gut
TTITLE26=Jim Fassett - Symphony Of The Birds/Second Movement (Buffo)
TTITLE27=Don Wescott - Shimmering Glimmering Tube
TTITLE28=The Decibels - Star Spangled Banner
EXTD=
EXTT0=
EXTT1=
EXTT2=
EXTT3=
EXTT4=
EXTT5=
EXTT6=
EXTT7=
EXTT8=
EXTT9=
EXTT10=
EXTT11=
EXTT12=
EXTT13=
EXTT14=
EXTT15=
EXTT16=
EXTT17=
EXTT18=
EXTT19=
EXTT20=
EXTT21=
EXTT22=
EXTT23=
EXTT24=
EXTT25=
EXTT26=
EXTT27=
EXTT28=
PLAYORDER=
